<svg width="35" height="35" viewBox="0 0 35 35" fill="none" xmlns="http://www.w3.org/2000/svg">
<path d="M15.3125 23.3844L10.7975 18.8708C10.3873 18.4605 9.83093 18.2298 9.25072 18.2297C8.67051 18.2296 8.11401 18.4599 7.70365 18.8701C7.29328 19.2803 7.06266 19.8367 7.06252 20.4169C7.06239 20.9971 7.29274 21.5536 7.70292 21.964L15.9527 30.2137C16.1559 30.417 16.3971 30.5783 16.6626 30.6883C16.928 30.7983 17.2126 30.8549 17.5 30.8549C17.7874 30.8549 18.072 30.7983 18.3374 30.6883C18.6029 30.5783 18.8441 30.417 19.0473 30.2137L27.2971 21.9654C27.5003 21.7622 27.6615 21.521 27.7714 21.2555C27.8814 20.99 27.938 20.7055 27.938 20.4181C27.938 20.1308 27.8814 19.8462 27.7714 19.5807C27.6615 19.3153 27.5003 19.074 27.2971 18.8708C27.0939 18.6676 26.8527 18.5065 26.5872 18.3965C26.3217 18.2865 26.0372 18.2299 25.7498 18.2299C25.4624 18.2299 25.1779 18.2865 24.9124 18.3965C24.6469 18.5065 24.4057 18.6676 24.2025 18.8708L19.6875 23.3844V6.5625C19.6875 5.98234 19.457 5.42594 19.0468 5.0157C18.6366 4.60547 18.0802 4.375 17.5 4.375C16.9198 4.375 16.3634 4.60547 15.9532 5.0157C15.543 5.42594 15.3125 5.98234 15.3125 6.5625V23.3844Z" fill="#FF0F00"/>
</svg>
