<svg width="78" height="78" viewBox="0 0 78 78" fill="none" xmlns="http://www.w3.org/2000/svg">
<g clip-path="url(#clip0_4_28)" filter="url(#filter0_d_4_28)">
<path d="M56.5 45.9375V50.3125H60.3237C57.8979 53.7026 54.697 56.4639 50.9879 58.3664C47.2787 60.2689 43.1686 61.2576 39 61.25C24.5253 61.25 12.75 49.4747 12.75 35H8.375C8.375 51.8875 22.1125 65.625 39 65.625C48.5266 65.625 57.3181 61.2478 63.0625 53.9328V56.875H67.4375V45.9375H56.5Z" fill="#FF0F00"/>
<path d="M53.2297 25.4559L40.1288 17.7997C39.7943 17.6041 39.414 17.5008 39.0265 17.5004C38.6391 17.5001 38.2586 17.6026 37.9238 17.7975L24.7747 25.4537C24.444 25.6462 24.1696 25.922 23.9788 26.2536C23.7881 26.5853 23.6876 26.9612 23.6875 27.3437V42.6562C23.6876 43.0388 23.7881 43.4147 23.9788 43.7464C24.1696 44.078 24.444 44.3538 24.7747 44.5463L37.9238 52.2025C38.2491 52.397 38.621 52.4998 39 52.5C39.3806 52.5 39.7875 52.4016 40.1288 52.2003L53.2297 44.5441C53.5592 44.3513 53.8326 44.0756 54.0225 43.7444C54.2125 43.4132 54.3125 43.038 54.3125 42.6562V27.3437C54.3125 26.962 54.2125 26.5868 54.0225 26.2556C53.8326 25.9244 53.5592 25.6487 53.2297 25.4559ZM39.0241 22.2184L47.7894 27.3437L39.0241 32.4669L30.2237 27.3437L39.0241 22.2184ZM28.0625 31.15L36.8125 36.2469V46.4953L28.0625 41.3984V31.15ZM41.1875 46.5172V36.2731L49.9375 31.1588V41.4028L41.1875 46.5172Z" fill="#FF0F00"/>
<path d="M39 4.375C34.3645 4.3683 29.7885 5.41773 25.6192 7.44364C21.4498 9.46955 17.7969 12.4187 14.9375 16.0672V13.125H10.5625V24.0625H21.5V19.6875H17.6762C20.1021 16.2974 23.303 13.5361 27.0121 11.6336C30.7213 9.73108 34.8314 8.74243 39 8.75C53.4747 8.75 65.25 20.5253 65.25 35H69.625C69.625 18.1125 55.8875 4.375 39 4.375Z" fill="#FF0F00"/>
</g>
<defs>
<filter id="filter0_d_4_28" x="0" y="0" width="78" height="78" filterUnits="userSpaceOnUse" color-interpolation-filters="sRGB">
<feFlood flood-opacity="0" result="BackgroundImageFix"/>
<feColorMatrix in="SourceAlpha" type="matrix" values="0 0 0 0 0 0 0 0 0 0 0 0 0 0 0 0 0 0 127 0" result="hardAlpha"/>
<feOffset dy="4"/>
<feGaussianBlur stdDeviation="2"/>
<feComposite in2="hardAlpha" operator="out"/>
<feColorMatrix type="matrix" values="0 0 0 0 0 0 0 0 0 0 0 0 0 0 0 0 0 0 0.25 0"/>
<feBlend mode="normal" in2="BackgroundImageFix" result="effect1_dropShadow_4_28"/>
<feBlend mode="normal" in="SourceGraphic" in2="effect1_dropShadow_4_28" result="shape"/>
</filter>
<clipPath id="clip0_4_28">
<rect width="70" height="70" fill="white" transform="translate(4)"/>
</clipPath>
</defs>
</svg>
