<svg width="48" height="48" viewBox="0 0 48 48" fill="none" xmlns="http://www.w3.org/2000/svg">
<rect width="48" height="48" rx="8" fill="#24A076"/>
<path d="M35 13H13C12.4696 13 11.9609 13.2107 11.5858 13.5858C11.2107 13.9609 11 14.4696 11 15V33C11 33.5304 11.2107 34.0391 11.5858 34.4142C11.9609 34.7893 12.4696 35 13 35H35C35.5304 35 36.0391 34.7893 36.4142 34.4142C36.7893 34.0391 37 33.5304 37 33V15C37 14.4696 36.7893 13.9609 36.4142 13.5858C36.0391 13.2107 35.5304 13 35 13ZM35 15V27.8438L31.7412 24.5863C31.5555 24.4005 31.335 24.2531 31.0923 24.1526C30.8497 24.052 30.5896 24.0003 30.3269 24.0003C30.0642 24.0003 29.8041 24.052 29.5614 24.1526C29.3187 24.2531 29.0982 24.4005 28.9125 24.5863L26.4125 27.0863L20.9125 21.5863C20.5375 21.2115 20.029 21.0009 19.4987 21.0009C18.9685 21.0009 18.46 21.2115 18.085 21.5863L13 26.6712V15H35ZM13 29.5L19.5 23L29.5 33H13V29.5ZM35 33H32.3288L27.8288 28.5L30.3288 26L35 30.6725V33ZM26 20.5C26 20.2033 26.088 19.9133 26.2528 19.6666C26.4176 19.42 26.6519 19.2277 26.926 19.1142C27.2001 19.0006 27.5017 18.9709 27.7926 19.0288C28.0836 19.0867 28.3509 19.2296 28.5607 19.4393C28.7704 19.6491 28.9133 19.9164 28.9712 20.2074C29.0291 20.4983 28.9993 20.7999 28.8858 21.074C28.7723 21.3481 28.58 21.5824 28.3334 21.7472C28.0867 21.912 27.7967 22 27.5 22C27.1022 22 26.7206 21.842 26.4393 21.5607C26.158 21.2794 26 20.8978 26 20.5Z" fill="white"/>
</svg>
