<svg width="218" height="211" viewBox="0 0 218 211" fill="none" xmlns="http://www.w3.org/2000/svg">
<path d="M215.5 105.5C215.5 162.309 167.896 208.5 109 208.5C50.1041 208.5 2.5 162.309 2.5 105.5C2.5 48.691 50.1041 2.5 109 2.5C167.896 2.5 215.5 48.691 215.5 105.5Z" fill="#E1F8BC" stroke="#036A33" stroke-width="5"/>
<path d="M135.805 98.536C138.269 98.5428 140.71 98.0607 142.986 97.1177C145.263 96.1747 147.329 94.7895 149.066 93.0422L167.113 75.0071C168.541 73.5797 168.672 71.2571 167.313 69.7594C166.971 69.3832 166.557 69.0802 166.095 68.8688C165.633 68.6574 165.133 68.5421 164.625 68.5298C164.118 68.5175 163.613 68.6086 163.141 68.7974C162.669 68.9862 162.241 69.2688 161.882 69.6282L145.797 85.7016C145.257 86.241 144.525 86.544 143.761 86.544C142.998 86.544 142.266 86.241 141.726 85.7016C140.603 84.5813 140.664 82.6876 141.784 81.5672L157.799 65.5524C158.158 65.1934 158.441 64.7652 158.629 64.2939C158.818 63.8225 158.909 63.3178 158.896 62.8102C158.884 62.3027 158.769 61.8029 158.558 61.3412C158.347 60.8795 158.044 60.4655 157.668 60.1243C156.989 59.5087 156.105 59.17 155.188 59.1751C154.674 59.1753 154.165 59.2768 153.69 59.4739C153.215 59.6709 152.784 59.9596 152.42 60.3235L136.42 76.3219C135.879 76.8614 135.147 77.1644 134.384 77.1644C133.621 77.1644 132.889 76.8614 132.348 76.3219C131.228 75.2016 131.287 73.3079 132.407 72.1876L148.422 56.1774C148.781 55.8184 149.063 55.3902 149.252 54.9189C149.44 54.4475 149.531 53.9428 149.519 53.4352C149.507 52.9277 149.392 52.4279 149.18 51.9662C148.969 51.5045 148.667 51.0905 148.291 50.7493C147.612 50.1337 146.727 49.795 145.811 49.8001C144.773 49.8013 143.777 50.2143 143.043 50.9485L125.008 68.9837C123.261 70.7213 121.875 72.7883 120.932 75.065C119.989 77.3416 119.507 79.7827 119.514 82.2469V84.1758C119.514 84.669 119.418 85.1574 119.229 85.6131C119.04 86.0687 118.764 86.4827 118.415 86.8313L110.069 95.1797C109.982 95.2669 109.878 95.3361 109.764 95.3832C109.651 95.4304 109.529 95.4547 109.405 95.4547C109.282 95.4547 109.16 95.4304 109.046 95.3832C108.933 95.3361 108.829 95.2669 108.742 95.1797L68.1297 54.5649C67.4288 53.8632 66.4784 53.4677 65.4865 53.4651C64.4947 53.4624 63.5422 53.8528 62.8375 54.5508C59.2867 58.0688 57.3906 63.0352 57.3906 68.911C57.3672 78.6141 62.4672 89.7704 70.7008 97.9922L90.7281 118.02C93.5748 120.86 97.4317 122.456 101.453 122.456C102.735 122.457 104.012 122.293 105.252 121.969C105.564 121.887 105.884 121.845 106.206 121.845C107.148 121.845 108.054 122.201 108.745 122.841L111.414 125.306C112.103 126.01 112.489 126.954 112.492 127.938V129.237C112.485 132.189 113.645 135.023 115.72 137.123L136.825 158.585L136.846 158.609C139.189 160.951 142.366 162.267 145.678 162.266C148.991 162.266 152.168 160.95 154.51 158.607C156.852 156.265 158.168 153.088 158.167 149.775C158.167 146.463 156.851 143.286 154.509 140.944L122.873 109.308C122.786 109.221 122.716 109.117 122.669 109.004C122.622 108.89 122.598 108.768 122.598 108.645C122.598 108.521 122.622 108.399 122.669 108.286C122.716 108.172 122.786 108.068 122.873 107.981L131.219 99.6352C131.567 99.2867 131.981 99.0102 132.436 98.8216C132.891 98.633 133.379 98.5359 133.872 98.536H135.805Z" fill="#036A33"/>
<path d="M101.453 128.906C95.4492 128.894 89.6923 126.515 85.4313 122.285L82.1828 119.037C81.8313 118.686 81.3551 118.489 80.8586 118.489C80.3621 118.489 79.8859 118.686 79.5344 119.037L59.6125 138.855C56.0617 142.406 54.7938 147.633 56.5516 152.752C56.6502 153.04 56.7668 153.322 56.9008 153.595C59.2656 158.437 63.8547 161.25 68.875 161.25C70.6015 161.254 72.3117 160.916 73.9064 160.254C75.5012 159.593 76.9489 158.622 78.1656 157.397L104.734 130.702C104.846 130.587 104.932 130.45 104.985 130.3C105.039 130.149 105.059 129.989 105.044 129.83V129.769C105.033 129.623 104.993 129.48 104.926 129.35C104.859 129.219 104.767 129.104 104.654 129.011C104.541 128.917 104.411 128.847 104.27 128.806C104.13 128.764 103.982 128.751 103.837 128.768C103.045 128.856 102.25 128.902 101.453 128.906Z" fill="#036A33"/>
</svg>
