<svg width="48" height="48" viewBox="0 0 48 48" fill="none" xmlns="http://www.w3.org/2000/svg">
<rect width="48" height="48" rx="8" fill="#24A076"/>
<path d="M35 17H24.4137L21 13.5863C20.815 13.3997 20.5947 13.2519 20.352 13.1512C20.1093 13.0506 19.849 12.9992 19.5863 13H13C12.4696 13 11.9609 13.2107 11.5858 13.5858C11.2107 13.9609 11 14.4696 11 15V33.0775C11.0007 33.5872 11.2034 34.0758 11.5638 34.4362C11.9242 34.7966 12.4128 34.9994 12.9225 35H35.1112C35.612 34.9994 36.092 34.8001 36.4461 34.4461C36.8001 34.092 36.9993 33.612 37 33.1113V19C37 18.4696 36.7893 17.9609 36.4142 17.5858C36.0391 17.2107 35.5304 17 35 17ZM13 15H19.5863L21.5863 17H13V15ZM35 33H13V19H35V33Z" fill="white"/>
</svg>
