<svg width="48" height="48" viewBox="0 0 48 48" fill="none" xmlns="http://www.w3.org/2000/svg">
<rect width="48" height="48" rx="8" fill="#24A076"/>
<path d="M34 15H30.535L28.8312 12.445C28.74 12.3082 28.6164 12.196 28.4714 12.1184C28.3264 12.0408 28.1645 12.0001 28 12H20C19.8355 12.0001 19.6736 12.0408 19.5286 12.1184C19.3836 12.196 19.26 12.3082 19.1687 12.445L17.4637 15H14C13.2044 15 12.4413 15.3161 11.8787 15.8787C11.3161 16.4413 11 17.2044 11 18V32C11 32.7956 11.3161 33.5587 11.8787 34.1213C12.4413 34.6839 13.2044 35 14 35H34C34.7956 35 35.5587 34.6839 36.1213 34.1213C36.6839 33.5587 37 32.7956 37 32V18C37 17.2044 36.6839 16.4413 36.1213 15.8787C35.5587 15.3161 34.7956 15 34 15ZM35 32C35 32.2652 34.8946 32.5196 34.7071 32.7071C34.5196 32.8946 34.2652 33 34 33H14C13.7348 33 13.4804 32.8946 13.2929 32.7071C13.1054 32.5196 13 32.2652 13 32V18C13 17.7348 13.1054 17.4804 13.2929 17.2929C13.4804 17.1054 13.7348 17 14 17H18C18.1647 17.0001 18.3268 16.9595 18.4721 16.8819C18.6173 16.8043 18.7411 16.692 18.8325 16.555L20.535 14H27.4638L29.1675 16.555C29.2589 16.692 29.3827 16.8043 29.5279 16.8819C29.6732 16.9595 29.8353 17.0001 30 17H34C34.2652 17 34.5196 17.1054 34.7071 17.2929C34.8946 17.4804 35 17.7348 35 18V32ZM24 19C22.9122 19 21.8488 19.3226 20.9444 19.9269C20.0399 20.5313 19.3349 21.3902 18.9187 22.3952C18.5024 23.4002 18.3935 24.5061 18.6057 25.573C18.8179 26.6399 19.3417 27.6199 20.1109 28.3891C20.8801 29.1583 21.8601 29.6821 22.927 29.8943C23.9939 30.1065 25.0998 29.9976 26.1048 29.5813C27.1098 29.1651 27.9687 28.4601 28.5731 27.5556C29.1774 26.6512 29.5 25.5878 29.5 24.5C29.4983 23.0418 28.9184 21.6438 27.8873 20.6127C26.8562 19.5816 25.4582 19.0017 24 19ZM24 28C23.3078 28 22.6311 27.7947 22.0555 27.4101C21.4799 27.0256 21.0313 26.4789 20.7664 25.8394C20.5015 25.1999 20.4322 24.4961 20.5673 23.8172C20.7023 23.1382 21.0356 22.5146 21.5251 22.0251C22.0146 21.5356 22.6382 21.2023 23.3172 21.0673C23.9961 20.9322 24.6999 21.0015 25.3394 21.2664C25.9789 21.5313 26.5256 21.9799 26.9101 22.5555C27.2947 23.1311 27.5 23.8078 27.5 24.5C27.5 25.4283 27.1313 26.3185 26.4749 26.9749C25.8185 27.6313 24.9283 28 24 28Z" fill="white"/>
</svg>
