<svg width="70" height="70" viewBox="0 0 70 70" fill="none" xmlns="http://www.w3.org/2000/svg">
<path d="M11.6346 9.80875C11.8194 8.69584 12.3939 7.68491 13.2555 6.95663C14.1171 6.22836 15.2096 5.83021 16.3377 5.83333C17.5102 5.83333 18.5835 6.25333 19.4177 6.94896C20.3226 6.2264 21.4462 5.83299 22.6042 5.83333C23.8087 5.83333 24.9171 6.25041 25.7906 6.94896C26.654 6.22616 27.7446 5.83111 28.8706 5.83333C29.9988 5.83021 31.0913 6.22836 31.9528 6.95663C32.8144 7.68491 33.389 8.69584 33.5737 9.80875C34.1104 13.0929 35 19.145 35 23.3333C35.0015 25.3032 34.5329 27.2449 33.6333 28.9973C32.7336 30.7497 31.4288 32.2621 29.8273 33.409C28.894 34.0798 28.4375 34.8892 28.4375 35.5819C28.4375 35.6373 28.439 35.6752 28.4419 35.719C28.5702 37.3173 29.8958 53.9117 29.8958 56.875C29.8958 58.8089 29.1276 60.6635 27.7602 62.031C26.3927 63.3984 24.538 64.1667 22.6042 64.1667C20.6703 64.1667 18.8156 63.3984 17.4482 62.031C16.0807 60.6635 15.3125 58.8089 15.3125 56.875C15.3125 53.9117 16.6381 37.3173 16.765 35.719C16.7691 35.6734 16.771 35.6276 16.7708 35.5819C16.7708 34.8892 16.3158 34.0798 15.381 33.409C13.7795 32.2621 12.4747 30.7497 11.5751 28.9973C10.6754 27.2449 10.2069 25.3032 10.2083 23.3333C10.2083 19.145 11.0979 13.0929 11.6346 9.80875ZM27.7083 24.4271C27.7083 24.9105 27.5163 25.3742 27.1744 25.7161C26.8325 26.0579 26.3689 26.25 25.8854 26.25C25.4019 26.25 24.9383 26.0579 24.5964 25.7161C24.2546 25.3742 24.0625 24.9105 24.0625 24.4271V10.9375C24.0625 10.5507 23.9089 10.1798 23.6354 9.9063C23.3619 9.63281 22.9909 9.47916 22.6042 9.47916C22.2174 9.47916 21.8465 9.63281 21.573 9.9063C21.2995 10.1798 21.1458 10.5507 21.1458 10.9375V24.4271C21.1458 24.9105 20.9538 25.3742 20.6119 25.7161C20.27 26.0579 19.8064 26.25 19.3229 26.25C18.8394 26.25 18.3758 26.0579 18.0339 25.7161C17.6921 25.3742 17.5 24.9105 17.5 24.4271V10.6415C17.5 10.3332 17.3775 10.0376 17.1596 9.81959C16.9416 9.60162 16.646 9.47916 16.3377 9.47916C15.7719 9.47916 15.3169 9.87729 15.2323 10.3979C14.6927 13.704 13.8542 19.4819 13.8542 23.3333C13.8527 24.7243 14.1835 26.0955 14.8189 27.3328C15.4543 28.5701 16.376 29.6378 17.5073 30.4471C18.9948 31.5146 20.4167 33.2952 20.4167 35.5804C20.4167 35.7233 20.4123 35.8575 20.4006 36.0106C20.2606 37.7417 18.9583 54.1042 18.9583 56.875C18.9583 57.8419 19.3424 58.7693 20.0262 59.453C20.7099 60.1367 21.6372 60.5208 22.6042 60.5208C23.5711 60.5208 24.4984 60.1367 25.1822 59.453C25.8659 58.7693 26.25 57.8419 26.25 56.875C26.25 54.1042 24.9477 37.7417 24.8092 36.0106C24.7981 35.868 24.7922 35.725 24.7917 35.5819C24.7917 33.2952 26.2135 31.5131 27.701 30.4471C28.8323 29.6378 29.754 28.5701 30.3894 27.3328C31.0248 26.0955 31.3556 24.7243 31.3542 23.3333C31.3542 19.4819 30.5156 13.704 29.976 10.3979C29.931 10.1384 29.795 9.90341 29.5925 9.73505C29.3899 9.56669 29.134 9.47598 28.8706 9.47916C28.5624 9.47916 28.2667 9.60162 28.0488 9.81959C27.8308 10.0376 27.7083 10.3332 27.7083 10.6415V24.4271ZM53.2292 9.52583V33.1771C53.2292 34.0375 53.5033 38.0333 53.8052 42.4156L53.8256 42.7131C54.234 48.6427 54.6875 55.2577 54.6875 56.875C54.6875 57.8419 54.3034 58.7693 53.6197 59.453C52.9359 60.1367 52.0086 60.5208 51.0417 60.5208C50.0747 60.5208 49.1474 60.1367 48.4637 59.453C47.7799 58.7693 47.3958 57.8419 47.3958 56.875C47.3958 55.4429 47.7531 49.6038 48.1206 44.0125C48.3362 40.7405 48.5584 37.469 48.7871 34.1979L48.8498 33.3054C48.8674 33.0558 48.8334 32.8053 48.75 32.5694C48.6666 32.3335 48.5355 32.1173 48.3649 31.9342C48.1944 31.7512 47.9879 31.6052 47.7584 31.5054C47.529 31.4056 47.2815 31.3541 47.0312 31.3542H42.6562C42.3662 31.3542 42.088 31.2389 41.8828 31.0338C41.6777 30.8287 41.5625 30.5505 41.5625 30.2604V22.2396C41.5624 19.0446 42.7609 15.9658 44.9211 13.6118C47.0813 11.2577 50.0459 9.79969 53.2292 9.52583ZM45.0771 35L44.9852 36.33C44.8481 38.3162 44.6644 40.9967 44.4835 43.7733C44.1219 49.2771 43.75 55.2869 43.75 56.875C43.75 58.8089 44.5182 60.6635 45.8857 62.031C47.2531 63.3984 49.1078 64.1667 51.0417 64.1667C52.9755 64.1667 54.8302 63.3984 56.1976 62.031C57.5651 60.6635 58.3333 58.8089 58.3333 56.875C58.3333 55.1119 57.874 48.4254 57.4758 42.6533L57.4627 42.4637C57.1448 37.8379 56.875 33.8917 56.875 33.1771V7.65625C56.875 6.65 56.0583 5.83333 55.0521 5.83333H54.3229C45.2623 5.83333 37.9167 13.179 37.9167 22.2396V30.2604C37.9167 31.5174 38.416 32.723 39.3049 33.6118C40.1937 34.5007 41.3992 35 42.6562 35H45.0771Z" fill="#FF8A00"/>
</svg>
