<svg width="116" height="116" viewBox="0 0 116 116" fill="none" xmlns="http://www.w3.org/2000/svg">
<path d="M58 0.152344C46.5905 0.152344 35.4372 3.53566 25.9506 9.87444C16.4639 16.2132 9.06996 25.2228 4.70373 35.7638C0.337495 46.3048 -0.80491 57.9038 1.42098 69.0941C3.64686 80.2844 9.14106 90.5633 17.2088 98.6311C25.2765 106.699 35.5555 112.193 46.7458 114.419C57.936 116.645 69.5351 115.502 80.0761 111.136C90.6171 106.77 99.6266 99.376 105.965 89.8893C112.304 80.4026 115.688 69.2494 115.688 57.8398C115.671 42.5451 109.588 27.8815 98.7734 17.0665C87.9584 6.25145 73.2947 0.168495 58 0.152344ZM38.0313 40.0898C39.3478 40.0898 40.6347 40.4802 41.7293 41.2116C42.8239 41.943 43.6771 42.9826 44.1808 44.1989C44.6846 45.4151 44.8165 46.7535 44.5596 48.0447C44.3028 49.3359 43.6688 50.5219 42.738 51.4528C41.8071 52.3837 40.621 53.0176 39.3298 53.2744C38.0387 53.5313 36.7003 53.3995 35.484 52.8957C34.2678 52.3919 33.2282 51.5387 32.4968 50.4441C31.7654 49.3495 31.375 48.0626 31.375 46.7461C31.375 44.9807 32.0763 43.2877 33.3246 42.0394C34.5729 40.7911 36.2659 40.0898 38.0313 40.0898ZM82.4063 88.3033C81.388 88.8907 80.1783 89.05 79.0427 88.7463C77.907 88.4427 76.9383 87.7008 76.3491 86.6836C72.2056 79.5226 65.6935 75.5898 58 75.5898C50.3065 75.5898 43.7945 79.5281 39.651 86.6836C39.3736 87.2139 38.9917 87.6826 38.5285 88.0615C38.0652 88.4404 37.5301 88.7217 36.9553 88.8885C36.3806 89.0552 35.778 89.104 35.1839 89.0318C34.5898 88.9597 34.0164 88.7681 33.4982 88.4686C32.9801 88.169 32.5279 87.7678 32.1688 87.289C31.8098 86.8102 31.5513 86.2637 31.4089 85.6824C31.2665 85.1011 31.2432 84.497 31.3403 83.9065C31.4374 83.316 31.653 82.7512 31.9741 82.2461C37.6818 72.3782 47.167 66.7148 58 66.7148C68.8331 66.7148 78.3182 72.3727 84.026 82.2461C84.6133 83.2644 84.7727 84.4741 84.469 85.6097C84.1654 86.7454 83.4235 87.7141 82.4063 88.3033ZM77.9688 53.4023C76.6523 53.4023 75.3654 53.012 74.2708 52.2806C73.1761 51.5492 72.323 50.5096 71.8192 49.2933C71.3154 48.0771 71.1836 46.7387 71.4404 45.4475C71.6973 44.1563 72.3312 42.9703 73.2621 42.0394C74.193 41.1085 75.379 40.4746 76.6702 40.2177C77.9614 39.9609 79.2997 40.0927 80.516 40.5965C81.7323 41.1003 82.7718 41.9535 83.5032 43.0481C84.2346 44.1427 84.625 45.4296 84.625 46.7461C84.625 48.5114 83.9237 50.2045 82.6755 51.4528C81.4272 52.7011 79.7341 53.4023 77.9688 53.4023Z" fill="#FAA61A"/>
</svg>
