<svg width="36" height="36" viewBox="0 0 36 36" fill="none" xmlns="http://www.w3.org/2000/svg">
<path d="M19.8332 11.7384L24.3199 16.28C24.7275 16.693 25.2825 16.927 25.8627 16.9308C26.4429 16.9346 27.0008 16.7077 27.4137 16.3001C27.8266 15.8925 28.0607 15.3376 28.0645 14.7574C28.0683 14.1772 27.8414 13.6192 27.4338 13.2063L19.2357 4.90513C19.0338 4.70059 18.7936 4.53783 18.5288 4.42615C18.264 4.31448 17.9798 4.25607 17.6924 4.25428C17.4051 4.25248 17.1201 4.30733 16.854 4.41569C16.5878 4.52405 16.3456 4.68379 16.1412 4.8858L7.84 13.0824C7.63554 13.2843 7.47286 13.5246 7.36124 13.7894C7.24961 14.0541 7.19124 14.3383 7.18944 14.6257C7.18765 14.913 7.24247 15.1979 7.35077 15.4641C7.45908 15.7303 7.61875 15.9725 7.82067 16.177C8.02259 16.3814 8.2628 16.5441 8.5276 16.6557C8.79239 16.7673 9.07657 16.8257 9.36393 16.8275C9.65128 16.8293 9.93617 16.7745 10.2023 16.6662C10.4685 16.5579 10.7107 16.3982 10.9152 16.1963L15.4583 11.711L15.3532 28.5326C15.3496 29.1127 15.5766 29.6706 15.9842 30.0834C16.3919 30.4961 16.9468 30.7301 17.527 30.7337C18.1071 30.7373 18.665 30.5103 19.0778 30.1027C19.4906 29.695 19.7245 29.1401 19.7281 28.5599L19.8332 11.7384Z" fill="#FF0F00"/>
<path d="M19.8332 11.7384L24.3199 16.28C24.7275 16.693 25.2825 16.927 25.8627 16.9308C26.4429 16.9346 27.0008 16.7077 27.4137 16.3001C27.8266 15.8925 28.0607 15.3376 28.0645 14.7574C28.0683 14.1772 27.8414 13.6192 27.4338 13.2063L19.2357 4.90513C19.0338 4.70059 18.7936 4.53783 18.5288 4.42615C18.264 4.31448 17.9798 4.25607 17.6924 4.25428C17.4051 4.25248 17.1201 4.30733 16.854 4.41569C16.5878 4.52405 16.3456 4.68379 16.1412 4.8858L7.84 13.0824C7.63554 13.2843 7.47286 13.5246 7.36124 13.7894C7.24961 14.0541 7.19124 14.3383 7.18944 14.6257C7.18765 14.913 7.24247 15.1979 7.35077 15.4641C7.45908 15.7303 7.61875 15.9725 7.82067 16.177C8.02259 16.3814 8.2628 16.5441 8.5276 16.6557C8.79239 16.7673 9.07657 16.8257 9.36393 16.8275C9.65128 16.8293 9.93617 16.7745 10.2023 16.6662C10.4685 16.5579 10.7107 16.3982 10.9152 16.1963L15.4583 11.711L15.3532 28.5326C15.3496 29.1127 15.5766 29.6706 15.9842 30.0834C16.3919 30.4961 16.9468 30.7301 17.527 30.7337C18.1071 30.7373 18.665 30.5103 19.0778 30.1027C19.4906 29.695 19.7245 29.1401 19.7281 28.5599L19.8332 11.7384Z" fill="#036A33"/>
</svg>
